<svg xmlns="http://www.w3.org/2000/svg" xmlns:xlink="http://www.w3.org/1999/xlink" width="193.523" height="104" viewBox="0 0 193.523 104">
  <defs>
    <linearGradient id="linear-gradient" x1="0.259" y1="0.149" x2="0.741" y2="0.851" gradientUnits="objectBoundingBox">
      <stop offset="0" stop-color="#fff"/>
      <stop offset="1" stop-color="#fff" stop-opacity="0"/>
    </linearGradient>
  </defs>
  <g id="Group_33" data-name="Group 33" transform="translate(-145.807 -315.162)">
    <path id="Path_95" data-name="Path 95" d="M240.168,346.389c-53.421,6.632-95.656,22.669-94.331,35.82S191.545,400.637,244.965,394s95.658-22.669,94.334-35.817S293.592,339.759,240.168,346.389Zm3.58,44.1c-37.651,4.674-78.372,2.648-79.676-10.311s38-24.916,75.653-29.594S318.092,347.94,319.4,360.9,281.4,385.819,243.748,390.492Zm-2.935-37.706c-39.067,4.85-69.953,16.577-68.984,26.195s33.426,13.476,72.491,8.625,69.955-16.578,68.987-26.192S279.881,347.938,240.813,352.786Zm2.618,32.253c-27.534,3.418-57.314,1.936-58.267-7.541s27.793-18.221,55.325-21.642,57.31-1.936,58.265,7.542S270.963,381.621,243.431,385.039Z" fill="#fff4e9"/>
    <g id="Group_31" data-name="Group 31">
      <ellipse id="Ellipse_3" data-name="Ellipse 3" cx="1.125" cy="0.664" rx="1.125" ry="0.664" transform="translate(284.371 382.998)" fill="#db8231"/>
      <g id="Group_29" data-name="Group 29">
        <path id="Path_96" data-name="Path 96" d="M294.986,367.162a52,52,0,1,1-52-52A52,52,0,0,1,294.986,367.162Z" fill="#fed09e"/>
        <g id="Group_28" data-name="Group 28">
          <path id="Path_97" data-name="Path 97" d="M235.052,405.122c-5.217-1.311-10.013-.576-15.126.763-3.83,1-8.155-1.157-12.3-.612a51.974,51.974,0,0,0,62.725,6.106c-.627-.193-1.266-.384-1.932-.568-5.1-1.406-10.863-1.457-16.094-2.287C246.525,407.6,240.746,406.551,235.052,405.122Z" fill="#db8231"/>
          <path id="Path_98" data-name="Path 98" d="M275.516,373.246c-2.473-.85-4.791-2.021-7.309-2.769-2.984-.887-6.408-.655-9.484-.8-6.518-.3-12.288-2.336-18.614-3.475-4.814-.866-9.671.176-14.319,1.4a46.2,46.2,0,0,1-9.3,1.78c-3.2.176-6.25-.225-9.455.335-5.284.921-10.5,1.835-15.8,2.564.163,1.663.408,3.3.724,4.915.714-.078,1.423-.153,2.119-.231,5.16-.58,10.166-1.875,15.3-2.563,5.511-.738,10.6-.108,16.094-1.536,6.659-1.729,12.1-2.443,18.783-.51a68.679,68.679,0,0,0,16.289,2.407,29.822,29.822,0,0,1,9.3,1.522,77.823,77.823,0,0,0,7.314,2.68c4.764,1.24,9.957-.723,14.483-2.026.851-.245,1.689-.439,2.515-.59a52.2,52.2,0,0,0,.664-5.286C288.3,372.391,282.176,375.538,275.516,373.246Z" fill="#db8231"/>
          <path id="Path_99" data-name="Path 99" d="M278.537,388.092c-5.844-1.41-11.873-.985-17.766-2.449-4.986-1.241-11.654-4.19-16.845-2.833A19.2,19.2,0,0,0,239,385.021c-1.9,1.118-5.441-.878-7.861-.287-2.313.566-4.363,1.694-6.611,2.446-2.306.771-6.073-1.18-8.367-1.632-5.841-1.151-11.919,1.162-17.411,2.913-.931.3-1.861.6-2.791.9a51.912,51.912,0,0,0,5.187,8.673c4.515-1.675,9.466-3.412,13.748-2.568,4.825.95,8.72,2.553,13.65.9,2.643-.884,3.995-2.142,6.854-1.144,2.378.83,5.531.027,7.686-1.076,2.131-1.09,2.727-1.716,5.2-1.285,2.772.484,5.5,1.278,8.213,2,6.027,1.6,11.811,1.737,17.908,2.589a36.192,36.192,0,0,1,8.885,2.564,52.029,52.029,0,0,0,5.467-8.154A52.922,52.922,0,0,0,278.537,388.092Z" fill="#ffe1c5"/>
          <path id="Path_100" data-name="Path 100" d="M256.152,324.965c4.987-.321,10.051-1.155,15.088-1.446a51.948,51.948,0,0,0-54.2-1.413c4.517.688,9.054.96,12.779,1.391C236.594,324.279,247.634,325.513,256.152,324.965Z" fill="#f9b673"/>
          <path id="Path_101" data-name="Path 101" d="M198.224,340.7a96.259,96.259,0,0,1,14.255-2.021c4.651-.387,8.766.385,13.349.983a61.342,61.342,0,0,0,15.89-.169c2.211-.281,4.413-.627,6.614-.972,3.21-.5,5.188.389,8.166,1.462,4.461,1.608,9.44,1.819,14.131,1.915,5.059.1,9.922.824,14.949,1.264a15.484,15.484,0,0,0,3.477-.114,52.18,52.18,0,0,0-6.951-10.127c-3.815-.368-7.594-.993-11.475-1.023a40.155,40.155,0,0,1-14.639-2.733c-5.16-1.982-10.742-.121-16,.547-10.289,1.309-20.139-1.739-30.439-.774q-1.013.095-2.029.2A52.224,52.224,0,0,0,198.224,340.7Z" fill="#db8231"/>
          <path id="Path_102" data-name="Path 102" d="M268.363,351.3c-6.033-1.6-11.66-3.313-17.953-3.4-6.33-.093-12.849.041-19.165.423a40.77,40.77,0,0,0-8.866,1.859,31.333,31.333,0,0,1-10.019.9,145.527,145.527,0,0,0-19.1.827q-.393,1.284-.719,2.6a144.73,144.73,0,0,1,19.814-.922,41.13,41.13,0,0,0,14.042-1.969c6.4-1.883,13.908-.9,20.524-1.143,11.883-.443,22.5,4.956,34.312,4.993,4.227.014,8.375-.109,12.479.309q-.285-1.279-.633-2.533c-1.586-.185-3.184-.3-4.8-.329C281.445,352.789,275.06,353.067,268.363,351.3Z" fill="#ffe1c5"/>
        </g>
        <ellipse id="Ellipse_4" data-name="Ellipse 4" cx="3" cy="1.77" rx="3" ry="1.77" transform="translate(278.996 359.559)" fill="#db8231"/>
        <ellipse id="Ellipse_5" data-name="Ellipse 5" cx="3" cy="1.77" rx="3" ry="1.77" transform="translate(204.953 357.392)" fill="#db8231"/>
        <ellipse id="Ellipse_6" data-name="Ellipse 6" cx="3" cy="1.77" rx="3" ry="1.77" transform="translate(268.203 381.642)" fill="#db8231"/>
        <ellipse id="Ellipse_7" data-name="Ellipse 7" cx="3" cy="1.77" rx="3" ry="1.77" transform="translate(232.453 318.392)" fill="#db8231"/>
        <ellipse id="Ellipse_8" data-name="Ellipse 8" cx="1.813" cy="1.069" rx="1.813" ry="1.069" transform="translate(247.203 402.968)" fill="#db8231"/>
        <ellipse id="Ellipse_9" data-name="Ellipse 9" cx="1.813" cy="1.069" rx="1.813" ry="1.069" transform="translate(246.203 354.218)" fill="#db8231"/>
        <ellipse id="Ellipse_10" data-name="Ellipse 10" cx="1.813" cy="1.069" rx="1.813" ry="1.069" transform="translate(218.953 378.843)" fill="#db8231"/>
        <ellipse id="Ellipse_11" data-name="Ellipse 11" cx="1.125" cy="0.664" rx="1.125" ry="0.664" transform="translate(267.891 328.373)" fill="#db8231"/>
        <ellipse id="Ellipse_12" data-name="Ellipse 12" cx="1.125" cy="0.664" rx="1.125" ry="0.664" transform="translate(221.036 325.165)" fill="#db8231"/>
        <ellipse id="Ellipse_13" data-name="Ellipse 13" cx="1.125" cy="0.664" rx="1.125" ry="0.664" transform="translate(228.37 357.998)" fill="#db8231"/>
        <path id="Path_103" data-name="Path 103" d="M263.787,363.995c0,.367-.5.664-1.125.664s-1.125-.3-1.125-.664.5-.664,1.125-.664S263.787,363.628,263.787,363.995Z" fill="#db8231"/>
        <ellipse id="Ellipse_14" data-name="Ellipse 14" cx="1.125" cy="0.664" rx="1.125" ry="0.664" transform="translate(273.703 344.665)" fill="#db8231"/>
        <path id="Path_104" data-name="Path 104" d="M244.619,377.829c0,.367-.5.664-1.125.664s-1.124-.3-1.124-.664.5-.664,1.124-.664S244.619,377.462,244.619,377.829Z" fill="#db8231"/>
        <ellipse id="Ellipse_15" data-name="Ellipse 15" cx="1.125" cy="0.664" rx="1.125" ry="0.664" transform="translate(233.703 400.498)" fill="#db8231"/>
        <path id="Path_105" data-name="Path 105" d="M266.287,403.495c0,.367-.5.664-1.125.664s-1.125-.3-1.125-.664.5-.664,1.125-.664S266.287,403.128,266.287,403.495Z" fill="#db8231"/>
        <ellipse id="Ellipse_16" data-name="Ellipse 16" cx="1.125" cy="0.664" rx="1.125" ry="0.664" transform="translate(204.036 380.498)" fill="#db8231"/>
        <path id="Path_106" data-name="Path 106" d="M209.12,344.495c0,.367-.5.664-1.125.664s-1.125-.3-1.125-.664.5-.664,1.125-.664S209.12,344.128,209.12,344.495Z" fill="#db8231"/>
        <path id="Path_107" data-name="Path 107" d="M250.953,343.326c0,.367-.5.664-1.125.664s-1.125-.3-1.125-.664.5-.664,1.125-.664S250.953,342.959,250.953,343.326Z" fill="#db8231"/>
      </g>
      <g id="Group_30" data-name="Group 30">
        <path id="Path_108" data-name="Path 108" d="M284.6,335.973c-16.9,23.768-48.233,61.133-80.74,65.418a51.995,51.995,0,0,0,80.74-65.418Z" fill="#212a3c" opacity="0.2"/>
        <path id="Path_109" data-name="Path 109" d="M294.957,366.006c-17.127,20.719-45.988,46.269-82.483,43.253a51.989,51.989,0,0,0,82.512-42.1C294.986,366.774,294.965,366.392,294.957,366.006Z" fill="#212a3c" opacity="0.2"/>
      </g>
    </g>
    <path id="Path_110" data-name="Path 110" d="M339.3,358.186c-.842-8.345-19.033-13.519-45.869-14.491.568,1.893,1.306,3.783,1.9,5.677,13.895,1.671,23.445,5.36,24.068,11.528,1.307,12.959-38,24.919-75.652,29.592s-78.372,2.648-79.676-10.311c-.653-6.48,8.854-12.71,23.231-17.906a48.6,48.6,0,0,1,.5-5.486c-26.044,7.535-42.806,17.061-41.964,25.42,1.326,13.144,45.708,18.428,99.128,11.794S340.623,371.334,339.3,358.186Z" fill="#fff4e9"/>
    <path id="Path_111" data-name="Path 111" d="M296.082,352.353c.022.12.055.24.074.359a25.572,25.572,0,0,1,.254,6.9,5.562,5.562,0,0,1,2.344,3.785c.957,9.477-27.791,18.223-55.323,21.641s-57.314,1.936-58.267-7.541c-.223-2.216,1.195-4.391,3.826-6.469a23.7,23.7,0,0,1-1.488-5.4c-10.169,4.337-16.106,9.053-15.673,13.349.969,9.613,33.426,13.476,72.491,8.625s69.955-16.578,68.987-26.192C312.883,357.214,306.449,354.111,296.082,352.353Z" fill="#fff4e9"/>
    <g id="Group_32" data-name="Group 32">
      <path id="Path_112" data-name="Path 112" d="M260.244,326.447c6.949,11.828-.965,29.376-17.684,39.2s-35.9,8.194-42.846-3.631.968-29.377,17.682-39.2S253.293,314.62,260.244,326.447Z" opacity="0.5" fill="url(#linear-gradient)"/>
      <path id="Path_113" data-name="Path 113" d="M244.887,324.913c4.148,7.065-1.315,17.978-12.2,24.376s-23.08,5.858-27.229-1.206,1.309-17.977,12.2-24.375S240.735,317.849,244.887,324.913Z" fill="#fff" opacity="0.4"/>
    </g>
  </g>
</svg>
