<svg xmlns="http://www.w3.org/2000/svg" xmlns:xlink="http://www.w3.org/1999/xlink" width="88.388" height="88.388" viewBox="0 0 88.388 88.388">
  <defs>
    <linearGradient id="linear-gradient" x1="-1.187" y1="-1.983" x2="-0.856" y2="-1.273" gradientUnits="objectBoundingBox">
      <stop offset="0" stop-color="#fff"/>
      <stop offset="1" stop-color="#fff" stop-opacity="0"/>
    </linearGradient>
  </defs>
  <g id="Group_9" data-name="Group 9" transform="translate(-203.297 -75.64)">
    <g id="Group_7" data-name="Group 7">
      <path id="Path_12" data-name="Path 12" d="M291.685,119.834A44.194,44.194,0,1,1,247.492,75.64,44.193,44.193,0,0,1,291.685,119.834Z" fill="#34b1e4"/>
      <g id="Group_5" data-name="Group 5">
        <path id="Path_13" data-name="Path 13" d="M250.295,148.453c1.355-2.411-.15-7.383-.15-8.588s-6.781-4.52-8.438-5.123a2.107,2.107,0,0,0-2.41.3s-9.794,2.862-11,4.821-8.889-1.959-9.191-3.766-2.109-7.233-2.259-7.836-8.137-6.177-9.04-6.328a14.133,14.133,0,0,0-4.342,1.623,44.192,44.192,0,0,0,38.552,40.121c.15-2.6-.241-5.014-.009-8.145.3-4.068.754-2.26,3.767-3.765S248.94,150.864,250.295,148.453Z" fill="#d7df23"/>
        <path id="Path_14" data-name="Path 14" d="M258.676,152.274c-.606,1.368-.551,2.521,1.1,3.026a6.39,6.39,0,0,0,3.469-.3c1.02-.238,2.392.047,3.223-.676,2.508-2.18.451-4.174-1.652-5.676-.664-.473-1.354-.9-2.019-1.373C259.884,145.226,259.372,150.7,258.676,152.274Z" fill="#d7df23"/>
        <path id="Path_15" data-name="Path 15" d="M270.482,82.085c-2.525,3.681-4.626,8.441-2.709,12.579,3.767,8.136,9.793,4.821,4.67,16.573s-8.888,6.63-8.287,18.232,2.713,18.532,6.63,18.382S275.758,132.03,286,133.536a16.282,16.282,0,0,1,3.23.811,44.2,44.2,0,0,0-18.752-52.262Z" fill="#d7df23"/>
        <path id="Path_16" data-name="Path 16" d="M218.5,92.706c3.615,2.109,4.369,1.958,9.04,8.438s-1.507,7.984-3.014,13.559-1.205,9.492.9,11.3,15.067,1.055,14.163-3.314-1.055-10.247-1.055-15.369,3.767-1.807,8.739-3.917,4.068-11,4.068-12.656-4.068-7.986-7.081-9.794a44.123,44.123,0,0,1-5.433-4.461,44.169,44.169,0,0,0-25.688,15.536C214.613,92.415,216.536,91.558,218.5,92.706Z" fill="#d7df23"/>
        <path id="Path_17" data-name="Path 17" d="M265.54,104.323a4.46,4.46,0,0,0-3.738-1.675,5.176,5.176,0,0,0-1.466.239,5.857,5.857,0,0,0-3.662,4.986c-.222,1.819.753,8.287.9,8.89a12.1,12.1,0,0,1,.15,3.466c-.081.652,1.743-.253,1.933-.345a6.493,6.493,0,0,0,2.985-2.324c.758-1.266.914-2.805,1.483-4.153C265.285,110.67,267.635,107.194,265.54,104.323Z" fill="#d7df23"/>
      </g>
      <g id="Group_6" data-name="Group 6">
        <path id="Path_18" data-name="Path 18" d="M284.243,126.605c1.018-.405,1.665-.68,1.952-1.82.578-2.284-.664-4.847-2.32-6.369a4.346,4.346,0,0,0-3.535-1.189,7.126,7.126,0,0,0-1.274.3,9.574,9.574,0,0,0-4.6,3.294c-1.042,1.49-.778,3.344-.819,5.067q-.045,1.884-.221,3.761c-.109,1.183-1.425,3.25.145,3.912,3.3,1.392,4.482-2.253,6.408-4.28A12.046,12.046,0,0,1,284.243,126.605Z" fill="#f9f98f"/>
        <path id="Path_19" data-name="Path 19" d="M275.409,85.579a12.737,12.737,0,0,0-1.52,3.676c-.534,2.172,1.211,5.019,3.233,5.8,1.717.659,1.137,2.271.829,3.7-.449,2.088-1.214,4.149-1.214,6.309,0,2.386.129,3.539,2.809,3.64,1.121.042,2.346.163,2.794-1.066a8.925,8.925,0,0,0-.026-4.457,4.424,4.424,0,0,1,.3-2.787,10.16,10.16,0,0,0,.754-3.088c0-.83-.9-2.11-1.28-3.241a10.035,10.035,0,0,1-.366-2.179A44.449,44.449,0,0,0,275.409,85.579Z" fill="#f9f98f"/>
        <path id="Path_20" data-name="Path 20" d="M242.315,140.511c-1.339-.06-2.55.709-3.789,1.094-.8.247-1.61.48-2.414.721-.677.2-1.351.415-2.019.65-2.921,1.027-5.746,2.593-7.173,5.474-.551,1.109,3.487,1.32,3.93,1.35a28.048,28.048,0,0,0,6.1-.745c2.12-.323,4.273-.394,6.383-.786a4.286,4.286,0,0,0,3.671-3.28C247.692,142.283,244.7,140.618,242.315,140.511Z" fill="#f9f98f"/>
        <path id="Path_21" data-name="Path 21" d="M233.794,91.11c-.425-.11-1.093-.687-1.506-.658-2.2.153-.752,3.71.014,4.525,1.324,1.406,2.9,2.986,4.884,1.5.806-.6,1.632.334,2.316.7.328.177,2.561,1.377,2.91,1.1a11.69,11.69,0,0,0,2.71-2.408c1.542-2.316,1.121-5.586.2-8.037-.952-2.536-3.645-4.587-6.048-5.662a2.952,2.952,0,0,0-1.371-.254,2.552,2.552,0,0,0-2.325,3.406,16.74,16.74,0,0,0,1.507,3.214c.9,1.407,0,1.607-.1,2.21C236.834,91.657,234.349,91.254,233.794,91.11Z" fill="#f9f98f"/>
      </g>
    </g>
    <g id="Group_8" data-name="Group 8">
      <path id="Path_22" data-name="Path 22" d="M213.2,147.7A44.194,44.194,0,0,0,282.9,93.391C271.159,111.49,242.318,150.441,213.2,147.7Z" fill="#212a3c" opacity="0.2"/>
      <path id="Path_23" data-name="Path 23" d="M216.412,151.247a44.189,44.189,0,0,0,75.273-31.413,44.6,44.6,0,0,0-.265-4.82C278.75,132.611,251.974,161.094,216.412,151.247Z" fill="#212a3c" opacity="0.2"/>
    </g>
    <path id="Path_24" data-name="Path 24" d="M261.155,86.7c5.88,9.684-.448,24.272-14.134,32.58s-29.547,7.2-35.426-2.486.447-24.272,14.132-32.581S255.275,77.02,261.155,86.7Z" opacity="0.3" fill="url(#linear-gradient)"/>
    <path id="Path_25" data-name="Path 25" d="M248.454,85.622c3.511,5.783-.869,14.859-9.784,20.273s-18.991,5.114-22.5-.669.867-14.862,9.783-20.276S244.941,79.837,248.454,85.622Z" fill="#fff" opacity="0.3"/>
  </g>
</svg>
