<svg xmlns="http://www.w3.org/2000/svg" xmlns:xlink="http://www.w3.org/1999/xlink" width="164.586" height="164.586" viewBox="0 0 164.586 164.586">
  <defs>
    <linearGradient id="linear-gradient" x1="-0.95" y1="-1.624" x2="-0.62" y2="-0.914" gradientUnits="objectBoundingBox">
      <stop offset="0" stop-color="#fff"/>
      <stop offset="1" stop-color="#fff" stop-opacity="0"/>
    </linearGradient>
  </defs>
  <g id="Group_4" data-name="Group 4" transform="translate(-31.779 -48.634)">
    <circle id="Ellipse_1" data-name="Ellipse 1" cx="68.406" cy="68.406" r="68.406" transform="matrix(0.23, -0.973, 0.973, 0.23, 31.779, 181.787)" fill="#f58466"/>
    <g id="Group_2" data-name="Group 2">
      <path id="Path_1" data-name="Path 1" d="M126.87,162.306c-9.606,0-20.48-.422-21.641,0s-5.279,3.168-14.569,3.168-18.158-4.012-23.12-4.75c-4.082-.61-12.232-2.145-16.112-2.319a68.641,68.641,0,0,0,25.338,29.848c10.213.25,21.439.437,26.773.234,7.708-.293,35.166-1.71,51.183-2.545A68.692,68.692,0,0,0,174.5,162.991C164.822,162.821,134.889,162.306,126.87,162.306Z" fill="#e05b41"/>
      <path id="Path_2" data-name="Path 2" d="M50.356,106.038h.61s9.078,1.371,9.923,1.371H73.135l10.241-.211,35.788-.738L131.41,105.4s15.73-1.054,16.68-1.054,18.053,1.689,18.58,1.689,6.44-.212,6.44-.212l4.233-.918A68.356,68.356,0,0,0,169.16,90.38c-1.272-.111-2.5-.242-3.44-.389-3.378-.528-9.712,0-12.774.317S108.5,90.2,108.5,90.2s-3.378.528-4.223.633S92.56,90.413,92.032,90.2s-7.918-.951-8.34-1.057-7.073-.632-8.234-1.16a15.4,15.4,0,0,0-4.012-.634L60.211,88.783A68.333,68.333,0,0,0,50.356,106.038Z" fill="#e05b41"/>
    </g>
    <g id="Group_3" data-name="Group 3">
      <path id="Path_3" data-name="Path 3" d="M56.279,111.7h3.66L78.8,109.45s14.357-1.406,16.609-1.689,7.883-.281,7.883-.281,26.182-.282,27.589-.282,18.581-1.126,18.581-1.126,10.416.283,11.823.283,11.262,1.406,12.95,1.689c.909.15,2.874.383,4.5.566q-.993-2.878-2.23-5.634H147.21l-4.223-.282s-7.6-.563-10.416-.844-7.319,0-8.726,0H111.176c-1.69,0-18.58.563-20.27.844s-7.038.563-9.008.844-5.913,0-8.446,0a43.393,43.393,0,0,0-4.786.282l-8.445.845-9.366.108q-1.044,2.521-1.887,5.144C52.12,110.835,56.279,111.7,56.279,111.7Z" fill="#fed09e"/>
      <path id="Path_4" data-name="Path 4" d="M148.618,182.731s-14.357,1.409-16.609,1.69-7.883.281-7.883.281-26.182.281-27.589.281-18.58,1.127-18.58,1.127-2.055-.055-4.463-.117q2.308,1.7,4.759,3.213h1.956l4.223.283s7.6.563,10.416.844,7.319,0,8.727,0h12.668c1.69,0,18.58-.563,20.27-.844s7.038-.564,9.008-.845a37.843,37.843,0,0,1,5.356-.069,68.7,68.7,0,0,0,9.427-7.238Z" fill="#fed09e"/>
      <path id="Path_5" data-name="Path 5" d="M171.176,160.5H160.164c-2.259,0-9.317-.221-15.529-.661-4.552-.323-9.088-.835-13.641-1.15-4.243-.292-8.492-.5-12.741-.7-14.607-.681-29.447-2.953-44.063-2.289-7.853.358-15.71.557-23.566.788q.594,1.472,1.253,2.907h1.844c.847,0,2.824.662,5.365,1.1,3.863.67,7.938,1.061,11.657,2.351,7.47,2.592,14.894,6.607,23.052,5.8a57.391,57.391,0,0,0,9.894-1.422,75.028,75.028,0,0,1,16.155-3.06c5.529-.33,11.069-.147,16.6-.147h9.318c2.823,0,12.987.661,15.246.661a39.517,39.517,0,0,1,7.906.882A17.707,17.707,0,0,0,172.8,166c1.068-1.784,2.063-3.616,2.968-5.5Zm-80.5,4.341c-3.334-.113-6-1.433-5.944-2.95s2.793-2.659,6.127-2.547,6,1.432,5.944,2.95S94.008,164.956,90.674,164.844Z" fill="#fed09e"/>
      <path id="Path_6" data-name="Path 6" d="M57.969,91.808c.453-.028.921-.059,1.407-.093,3.941-.281,16.047,0,19.144,0s18.861,1.126,22.24,1.126,17.735.282,23.647.282,14.639,2.533,32.093,2.816c5.643.089,11.252,0,16.265-.154a68.723,68.723,0,0,0-11.337-14.2l-.142-.009a105.881,105.881,0,0,0-16.328.845c-8.164.844-16.328-.563-24.492-1.126-13.232-1.126-27.589-2.253-40.821-1.126-4.408.383-8.783,1-13.158,1.636A68.719,68.719,0,0,0,57.969,91.808Zm41.226-8.971c7.775.26,14.021,2.145,13.953,4.211s-6.428,3.53-14.2,3.269-14.021-2.144-13.952-4.21S91.421,82.577,99.195,82.837Z" fill="#fed09e"/>
      <path id="Path_7" data-name="Path 7" d="M49.523,130.565c.844,0,4.5.563,6.756.844,6.988.873,14.085.342,21.045,1.486,5.78.95,11.791,1.183,17.5,2.346,4.049.824,7.812,2.754,11.7,4.1a63.77,63.77,0,0,0,34.25,1.745c5.5-1.2,10.714-3.354,16.1-4.946,5.331-1.577,10.736-2.091,16.233-2.755h9.307c.028-.815.062-1.63.062-2.453,0-.877-.034-1.746-.067-2.616-5.8-.489-11.578-.638-17.406-.9-7.976-.355-14.81-4.016-22.193-6.563a59.466,59.466,0,0,0-18.152-3.6c-9.866-.2-18.391,4.62-27.84,6.6-7.088,1.483-14.568.833-21.76.805-8.982-.034-17.964,0-26.947,0H45.965c-.182,2-.287,4.016-.293,6.06C47.652,130.628,49.239,130.565,49.523,130.565Zm76.813-7.034c8.7.29,15.649,3.739,15.518,7.7s-7.295,6.938-16,6.647-15.649-3.738-15.516-7.7S117.634,123.239,126.336,123.531Z" fill="#fed09e"/>
    </g>
    <path id="Path_8" data-name="Path 8" d="M60.1,172.972A68.411,68.411,0,0,0,169.2,90.423C152.705,116.417,106.171,181.747,60.1,172.972Z" fill="#212a3c" opacity="0.2"/>
    <path id="Path_9" data-name="Path 9" d="M63.609,177.1A68.4,68.4,0,0,0,181.94,122.412C163.565,148.882,120.888,196.98,63.609,177.1Z" fill="#212a3c" opacity="0.2"/>
    <path id="Path_10" data-name="Path 10" d="M133.668,77.7c9.1,14.989-.693,37.569-21.878,50.43s-45.734,11.139-54.835-3.85.693-37.568,21.876-50.429S124.565,62.715,133.668,77.7Z" opacity="0.3" fill="url(#linear-gradient)"/>
    <path id="Path_11" data-name="Path 11" d="M114.008,76.028c5.435,8.952-1.345,23-15.145,31.381s-29.395,7.915-34.829-1.037,1.342-23,15.143-31.383S108.572,67.073,114.008,76.028Z" fill="#fff" opacity="0.3"/>
  </g>
</svg>
