<svg xmlns="http://www.w3.org/2000/svg" xmlns:xlink="http://www.w3.org/1999/xlink" width="116.667" height="116.667" viewBox="0 0 116.667 116.667">
  <defs>
    <linearGradient id="linear-gradient" x1="-1.436" y1="-1.092" x2="-1.107" y2="-0.378" gradientUnits="objectBoundingBox">
      <stop offset="0" stop-color="#fff"/>
      <stop offset="1" stop-color="#fff" stop-opacity="0"/>
    </linearGradient>
  </defs>
  <g id="Group_27" data-name="Group 27" transform="translate(-50.041 -217.476)">
    <g id="Group_25" data-name="Group 25">
      <path id="Path_78" data-name="Path 78" d="M166.708,275.81a58.333,58.333,0,1,1-58.333-58.334A58.334,58.334,0,0,1,166.708,275.81Z" fill="#f7941e"/>
      <path id="Path_79" data-name="Path 79" d="M132.573,254.2c-4.754-2.161-5.617-3.889-10.8-3.457-8.21.433-15.124,6.049-23.765,5.185-9.074-.864-15.987-4.752-25.493-2.593-6.051,1.729-6.482,1.729-12.964.865-1.551-.222-3.3-.387-5.16-.5a58.327,58.327,0,1,0,108.728,1.912C153.83,260.145,142.737,259.286,132.573,254.2Z" fill="#f15a29"/>
      <path id="Path_80" data-name="Path 80" d="M115.721,295.254c-6.049,3.456-12.1,2.593-19.013,3.89-14.26,2.592-19.444-8.644-31.975-10.8-4.753-.863-8.21-.863-12.963-2.593-.3-.074-.607-.161-.913-.248a58.33,58.33,0,0,0,115.851-9.689c0-.265-.017-.524-.019-.788-9.5,2.3-20.257,8.237-27.635,11.59C130.845,290.5,123.93,290.933,115.721,295.254Z" fill="#ea3232"/>
      <path id="Path_81" data-name="Path 81" d="M68.731,233.032q1.748-1.621,3.63-3.093c1.475.031,3.174.069,3.174.069h5.509c.433,0,13.936-.217,13.936-.217s2.591-.324,3.025-.324c.317,0,3.731.118,5.516.181.641.02,1.074.036,1.074.035a29.477,29.477,0,0,0-3.457.431c-1.621.325-3.567.757-4.106.866s-1.4,0-2.376.107a26.336,26.336,0,0,0-3.673.648c-1.188.325-2.917.216-3.888.433a24.9,24.9,0,0,1-4.106.431c-2.051.109-6.049.433-7.237.433H68.731Z" fill="#f15a29"/>
      <path id="Path_82" data-name="Path 82" d="M142.4,321.18c-3.192-.082-10.426-.974-17.024-.974s-14.259.648-14.259.648a96.683,96.683,0,0,0,9.684.973h6.6c1.49,0,3.618.568,5.745.648s7.129-.08,7.129-.08,1.482-.088,3.476-.212c.515-.394,1.026-.791,1.527-1.2A20.186,20.186,0,0,1,142.4,321.18Z" fill="#f15a29"/>
      <path id="Path_83" data-name="Path 83" d="M145.933,246.375c-.55.053-2.53.285-4.174.441a29.216,29.216,0,0,1-3.484.082s.428.057,1.064.143c1.77.244,5.154.707,5.471.738.431.044,3.042-.015,3.042-.015s8.546.733,12.231,1.052q-.714-1.365-1.495-2.691a18.008,18.008,0,0,0-2.649.074c-.991.116-2.7-.166-3.915.036a26.877,26.877,0,0,1-3.718.273C147.327,246.517,146.479,246.321,145.933,246.375Z" fill="#f15a29"/>
      <path id="Path_84" data-name="Path 84" d="M90.2,239.216a56.747,56.747,0,0,0,7.372.973H102.6c1.134,0,2.754.566,4.375.646s5.428-.08,5.428-.08,7.372-.566,9.884-.891,4.052-.162,6.157-.324a43.569,43.569,0,0,1,4.619-.08c2.187,0,2.917.323,4.861.323s2.35.081,4.456.081a30.885,30.885,0,0,0,3.321-.244,9.368,9.368,0,0,0,2.108-.16c.647-.164-1.216-.568-1.216-.568H144a8.855,8.855,0,0,1-1.3-.082c-.648-.08-1.944-.08-1.944-.08s-8.67-.649-8.912-.649H122.2c-.972,0-5.752,1.539-8.182,1.459s-7.941-.972-12.963-.972S90.2,239.216,90.2,239.216Z" fill="#f15a29"/>
      <g id="Group_24" data-name="Group 24">
        <path id="Path_85" data-name="Path 85" d="M166.234,268.415c-1.859-.157-4.642-.391-4.758-.388-.174.008-6.207.224-6.9.247s-4.054,1.94-5.8,1.906-5.726-.929-9.323-.8a51.79,51.79,0,0,0-7.747,1.03,26.213,26.213,0,0,0,5.319.943c1.682-.059,2.787-.1,3.6-.127s2,.589,3.162.643a38.834,38.834,0,0,0,3.884-.233s5.255-.85,7.04-1.288a39.555,39.555,0,0,1,4.4-.537,19.252,19.252,0,0,1,3.3-.21c1.568-.057,2.1.3,3.5.252.182-.006.345-.009.5-.012Q166.323,269.124,166.234,268.415Z" fill="#f7941e"/>
        <path id="Path_86" data-name="Path 86" d="M64.435,267.572a56.735,56.735,0,0,0,7.375.973h5.022c1.134,0,2.755.567,4.375.647s5.428-.08,5.428-.08,7.373-.567,9.885-.891,4.05-.162,6.157-.324a43.008,43.008,0,0,1,4.618-.082c2.187,0,2.916.325,4.86.325s2.351.081,4.457.081a31.091,31.091,0,0,0,3.322-.243,9.178,9.178,0,0,0,2.106-.163c.649-.162-1.216-.567-1.216-.567h-2.592a8.949,8.949,0,0,1-1.3-.081c-.649-.081-1.944-.081-1.944-.081s-8.669-.647-8.913-.647h-9.64c-.973,0-5.753,1.539-8.183,1.458s-7.94-.973-12.963-.973S64.435,267.572,64.435,267.572Z" fill="#f7941e"/>
        <path id="Path_87" data-name="Path 87" d="M113.017,286.612c1.346,0,1.794.323,2.991.323s1.447.082,2.744.082a11.944,11.944,0,0,0,2.044-.244,3.606,3.606,0,0,0,1.3-.161c.4-.162-.749-.567-.749-.567h-1.6a3.39,3.39,0,0,1-.8-.082,8.443,8.443,0,0,0-1.2-.08s-5.336-.649-5.485-.649h-5.935c-.6,0-3.541,1.539-5.036,1.458s-4.889-.971-7.981-.971a44.523,44.523,0,0,0-6.682.647,22.492,22.492,0,0,0,4.538.974h3.092c.7,0,1.7.565,2.694.647s3.34-.082,3.34-.082,4.538-.565,6.084-.89a34.173,34.173,0,0,1,3.79-.325A16.549,16.549,0,0,1,113.017,286.612Z" fill="#f7941e"/>
      </g>
      <path id="Path_88" data-name="Path 88" d="M120.077,309.729c2.767-.163,3.192-.082,6.066-.082s3.83.325,6.384.325,3.084.081,5.851.081,3.513-.243,4.364-.243a15.769,15.769,0,0,0,2.766-.163c.851-.162-1.6-.567-1.6-.567h-3.406a15.572,15.572,0,0,1-1.7-.08c-.853-.082-2.555-.082-2.555-.082s-11.384-.647-11.705-.647h-12.66c-1.279,0-7.556,1.539-10.748,1.458s-10.429-.973-17.027-.973-14.256.648-14.256.648a96.654,96.654,0,0,0,9.682.973h6.6c1.488,0,3.616.567,5.745.647s7.129-.08,7.129-.08,9.682-.567,12.982-.891S117.31,309.891,120.077,309.729Z" fill="#f15a29"/>
      <path id="Path_89" data-name="Path 89" d="M161.087,294.69a24.782,24.782,0,0,0-4.078.64c-.96.266-2.691.246-3.863.63a26.039,26.039,0,0,1-3.633.833c-.967.159-1.833.1-2.367.23s-2.456.667-4.057,1.073a29.408,29.408,0,0,1-3.431.607s.431-.007,1.073-.018c1.786-.029,5.2-.085,5.52-.1.432-.024,3-.48,3-.48s10.84-.725,13.383-.893q.549-1.392,1.03-2.819C162.709,294.507,161.783,294.617,161.087,294.69Z" fill="#f15a29"/>
      <path id="Path_90" data-name="Path 90" d="M83.89,322.994c.976-.055,1.833.1,2.377.022s2.511-.4,4.147-.637a29.308,29.308,0,0,1,3.475-.24s-.429-.038-1.07-.1c-1.778-.161-5.18-.468-5.5-.484-.433-.025-3.039.157-3.039.157s-8.945-.35-12.5-.493q1.661,1.34,3.42,2.559c.393-.03.743-.073,1.077-.129.983-.162,2.7.043,3.907-.214A26.153,26.153,0,0,1,83.89,322.994Z" fill="#f15a29"/>
    </g>
    <g id="Group_26" data-name="Group 26">
      <path id="Path_91" data-name="Path 91" d="M155.871,241.966c-17.743,25.6-54.193,70.751-91.377,72.257a58.319,58.319,0,0,0,91.377-72.257Z" fill="#212a3c" opacity="0.2"/>
      <path id="Path_92" data-name="Path 92" d="M166.661,273.971c-18.48,23.221-51.931,54.364-94.7,47.391a58.319,58.319,0,0,0,94.752-45.552C166.708,275.193,166.681,274.583,166.661,273.971Z" fill="#212a3c" opacity="0.2"/>
    </g>
    <path id="Path_93" data-name="Path 93" d="M133.291,233.459c8.643,14.709-1.2,36.532-21.99,48.746S66.657,292.4,58.016,277.69s1.2-36.534,21.989-48.748S124.648,218.75,133.291,233.459Z" opacity="0.3" fill="url(#linear-gradient)"/>
    <path id="Path_94" data-name="Path 94" d="M114.192,231.552c5.16,8.785-1.633,22.356-15.175,30.313s-28.7,7.285-33.863-1.5,1.628-22.355,15.172-30.313S109.029,222.766,114.192,231.552Z" fill="#fff" opacity="0.3"/>
  </g>
</svg>
