<svg xmlns="http://www.w3.org/2000/svg" xmlns:xlink="http://www.w3.org/1999/xlink" width="138.337" height="138.334" viewBox="0 0 138.337 138.334">
  <defs>
    <linearGradient id="linear-gradient" x1="-0.335" y1="-0.626" x2="-0.006" y2="0.087" gradientUnits="objectBoundingBox">
      <stop offset="0" stop-color="#fff"/>
      <stop offset="1" stop-color="#fff" stop-opacity="0"/>
    </linearGradient>
  </defs>
  <g id="Group_23" data-name="Group 23" transform="translate(-310.484 -61.601)">
    <g id="Group_21" data-name="Group 21">
      <g id="Group_20" data-name="Group 20">
        <path id="Path_61" data-name="Path 61" d="M448.813,131.768a69.168,69.168,0,1,1-68.163-70.16A69.168,69.168,0,0,1,448.813,131.768Z" fill="#196ea5"/>
        <g id="Group_19" data-name="Group 19">
          <path id="Path_62" data-name="Path 62" d="M448.626,125.8c-5.228.144-10.433.1-15.557-1.23-8.68-2.25-16.48-7.04-25.228-9.09a113.589,113.589,0,0,0-36.521-2.009c-11.933,1.157-23.051,6.293-34.953,7.6-8.331.917-16.783.474-25.2.083a70.038,70.038,0,0,0-.68,8.616c-.02,1.483.021,2.954.093,4.415l10.946.16c18.22.261,35.814,6.616,53.859,8.588,12.382,1.353,24.88.428,37.248-.678,5.32-.477,9.815-3.74,15.093-4.244,4.5-.427,9.02-.491,13.537-.593.532-.013,3.588.012,7.213,0,.179-1.865.3-3.748.333-5.653C448.841,129.755,448.766,127.769,448.626,125.8Z" fill="#27aae1"/>
          <path id="Path_63" data-name="Path 63" d="M443.648,157.006a56.694,56.694,0,0,0-9.217,2.264c-2.962,1.3-12.92,2.844-15.876,3.811s-7.364.23-7.364.23l-22.439-.324c-1.1-.016-13.214-2.213-16.132-3.937s-10.271-2.169-10.271-2.169l-23.865-3.712-23.394,2.415a69.1,69.1,0,0,0,9.946,17.6c7.078.172,14.03,1.207,17.925,1.262a105.587,105.587,0,0,1,17.261,2.27c4.4,1.074,8.087.455,9.926.481s18.4-.409,33.5-.863,8.829.127,11.782-.5,7.724.111,11.4.164a46.274,46.274,0,0,0,5.2-.07A69.125,69.125,0,0,0,443.648,157.006Z" fill="#27aae1"/>
          <path id="Path_64" data-name="Path 64" d="M320.012,95.752c10.843-2.929,28.488-5.993,45.451-1.478,27.122,7.219,34.873,5.534,44.469,3.516s15.487-2.291,17.7-2.258l11.652.168a69.442,69.442,0,0,0-11.553-14.636c-1.465-.173-2.871-.305-3.934-.321-3.312-.048-9.19-.492-14.7-.932s-16.528-2.035-18.367-2.06-1.833-.388-9.186-.853-19.461-2.8-24.606-3.23c-4.974-.419-8.58-1.482-13.8-1.624A69.494,69.494,0,0,0,320.012,95.752Z" fill="#27aae1"/>
        </g>
        <path id="Path_65" data-name="Path 65" d="M415.185,128.89c-.078,5.485-12.083,9.76-26.814,9.546s-26.605-4.831-26.527-10.317,12.084-9.761,26.813-9.548S415.266,123.4,415.185,128.89Z" fill="#5fb2e0"/>
        <path id="Path_66" data-name="Path 66" d="M403.413,128.72c-.043,3.064-6.749,5.451-14.978,5.333s-14.863-2.7-14.818-5.765,6.749-5.451,14.979-5.332S403.458,125.656,403.413,128.72Z" fill="#a4dbf4"/>
        <path id="Path_67" data-name="Path 67" d="M409.132,89.233c-.121,3.327-7.461,5.761-16.4,5.437s-16.08-3.285-15.959-6.612,7.462-5.762,16.4-5.437S409.253,85.9,409.132,89.233Z" fill="#5fb2e0"/>
        <path id="Path_68" data-name="Path 68" d="M401.992,88.974c-.067,1.859-4.167,3.218-9.159,3.037s-8.982-1.836-8.915-3.694,4.166-3.218,9.159-3.037S402.06,87.114,401.992,88.974Z" fill="#a4dbf4"/>
        <path id="Path_69" data-name="Path 69" d="M353.692,83.449c-.051,1.445-3.238,2.5-7.116,2.361s-6.975-1.428-6.924-2.87,3.238-2.5,7.117-2.359S353.745,82,353.692,83.449Z" fill="#a4dbf4"/>
        <path id="Path_70" data-name="Path 70" d="M344.719,129.25c-.025,1.677-6.056,2.948-13.471,2.841s-13.409-1.552-13.385-3.229,6.057-2.947,13.473-2.839S344.744,127.575,344.719,129.25Z" fill="#5fb2e0"/>
        <path id="Path_71" data-name="Path 71" d="M427.983,169.456c-.021,1.487-5.371,2.615-11.947,2.52s-11.894-1.375-11.872-2.864,5.371-2.615,11.948-2.519S428.005,167.969,427.983,169.456Z" fill="#5fb2e0"/>
        <path id="Path_72" data-name="Path 72" d="M370.079,166.079c-.058,2.072-7.534,3.546-16.7,3.293s-16.551-2.14-16.494-4.211,7.536-3.545,16.7-3.292S370.136,164.008,370.079,166.079Z" fill="#a4dbf4"/>
      </g>
      <path id="Path_73" data-name="Path 73" d="M446.782,147.4c-.364,1.478-.766,2.94-1.224,4.377-1.91-.045-3.823-.045-5.73.055-4.322.227-8.359,1.559-12.614,2.174a132.239,132.239,0,0,1-18.365,1.654c-4.089,0-8.156-.543-12.222-.92-3.43-.316-7.144.1-10.5-.7a198.685,198.685,0,0,0-20.3-3.69c-8.316-1.056-16.786-2.782-25.126-3.4-5.695-.421-11.7-.812-17.4-.827-3.4-.01-6.767.057-10.16.12l-.9.015c-.183-.8-.367-1.6-.521-2.417,5.82.01,11.833.715,17.475,1.082,11.459.747,22.9,1.791,34.384,2.1,5.979.163,11.582,1.766,17.466,2.6a62.362,62.362,0,0,0,12.1.974c6.536-.319,13.074.062,19.607.222,6.008.149,11.9-.488,17.893-.561C436.107,150.194,441.479,148.744,446.782,147.4ZM333.349,107.66c4.736-.653,8.891-1.382,13.731-1.29q13.22.252,26.422.592c13.664.353,27.331-1.053,40.9,1.211,4.668.779,9.156,2.475,13.912,2.847,5.484.428,11.769-.99,17.112.278a6.23,6.23,0,0,0,.638.1c-.521-1.791-1.127-3.545-1.787-5.274a384.593,384.593,0,0,1-45.261-2.32c-7.93-.831-15.9-1.966-23.863-2.438-16.139-.952-32.3-.45-48.456-.637q-4.631-.054-9.26-.194a68.515,68.515,0,0,0-4.047,10.409C320.05,110.109,326.727,108.575,333.349,107.66Zm25.332-42.8,10.848,2.477s7.539.293,8.276.3,11.94,1.277,13.041,1.476,10.634,2.545,11.369,2.557,6.614.646,7.9.666c1.075.015,5.608.338,7.391.555a69.114,69.114,0,0,0-58.826-8.034Zm36.588,118.383c-.552-.007-6.079.465-6.818.637s-8.854,1.713-8.854,1.713-8.457-.49-9.009-.5-8.093-.117-10.3-.333-15.98-1.7-15.98-1.7l-10.08-.146a69.134,69.134,0,0,0,88.8,1.724c0-.045,0-.075,0-.075s-9.552-.872-10.105-.879l-8.461-.123C403.543,183.546,395.819,183.251,395.269,183.241Z" fill="#0e577f"/>
    </g>
    <g id="Group_22" data-name="Group 22">
      <path id="Path_74" data-name="Path 74" d="M435.97,90.625c-20.2,29.552-64.64,85.834-109.339,84.53A69.154,69.154,0,0,0,435.97,90.625Z" fill="#212a3c" opacity="0.2"/>
      <path id="Path_75" data-name="Path 75" d="M448.69,126.849c-21.368,27.6-62.381,67.318-115.216,55.388a69.148,69.148,0,0,0,115.339-50.469C448.836,130.112,448.781,128.476,448.69,126.849Z" fill="#212a3c" opacity="0.2"/>
    </g>
    <path id="Path_76" data-name="Path 76" d="M405.82,77.686c9.8,16.688-1.365,41.45-24.95,55.307s-50.65,11.564-60.455-5.123,1.364-41.449,24.947-55.306S396.013,61,405.82,77.686Z" opacity="0.3" fill="url(#linear-gradient)"/>
    <path id="Path_77" data-name="Path 77" d="M384.149,75.523c5.856,9.966-1.851,25.365-17.215,34.392s-32.566,8.266-38.42-1.7,1.847-25.364,17.213-34.394S378.292,65.555,384.149,75.523Z" fill="#fff" opacity="0.3"/>
  </g>
</svg>
