<svg xmlns="http://www.w3.org/2000/svg" xmlns:xlink="http://www.w3.org/1999/xlink" width="193.521" height="117.539" viewBox="0 0 193.521 117.539">
  <defs>
    <linearGradient id="linear-gradient" x1="-0.889" y1="-0.607" x2="-0.559" y2="0.103" gradientUnits="objectBoundingBox">
      <stop offset="0" stop-color="#fff"/>
      <stop offset="1" stop-color="#fff" stop-opacity="0"/>
    </linearGradient>
  </defs>
  <g id="Group_14" data-name="Group 14" transform="translate(-279.535 -215.226)">
    <path id="Path_26" data-name="Path 26" d="M373.9,258.9c-53.421,6.632-95.656,22.669-94.331,35.821s45.708,18.427,99.128,11.794,95.657-22.669,94.332-35.817S427.318,252.272,373.9,258.9Zm3.316,41.491c-32.719,4.061-68.107,2.3-69.239-8.961S341,269.778,373.717,265.713s68.1-2.3,69.237,8.963S409.929,296.331,377.212,300.392Z" fill="#ffc585"/>
    <g id="Group_13" data-name="Group 13">
      <g id="Group_11" data-name="Group 11">
        <path id="Path_27" data-name="Path 27" d="M434.427,273.995a58.77,58.77,0,1,1-58.771-58.769A58.771,58.771,0,0,1,434.427,273.995Z" fill="#f7941e"/>
        <g id="Group_10" data-name="Group 10">
          <path id="Path_28" data-name="Path 28" d="M402.029,243.287c-2.824-.779-5.746-1.086-8.625-1.586-6.492-1.133-13.079-2.559-19.706-2.377-3.186.088-18.48,1.146-16.178,7.438.75,2.048,3.72,2.74,5.515,3.416A29.435,29.435,0,0,0,377.471,252c3.2-.459,6.232-1.894,9.492-2.019,3.772-.149,7.547-.2,11.321-.237.806-.007,3.8.207,6.413,0,2.446-.2,4.561-.762,4.248-2.225C408.426,245.088,404.023,243.837,402.029,243.287Z" fill="#fbb040"/>
          <path id="Path_29" data-name="Path 29" d="M423.352,239.676a58.743,58.743,0,0,0-90.831-5.581c12.924-.481,25.942-.612,38.57-3.547,3.44-.8,6.892-1.862,10.481-1.75,8.18.254,15.647,3.879,23.109,6.726C409.751,237.46,417.124,240.23,423.352,239.676Z" fill="#e05b41"/>
          <path id="Path_30" data-name="Path 30" d="M419.533,284.285c-2.193-.232-4.568-.847-6.767-.361-1.525.336-4.4,2.067-2.211,3.715a9.463,9.463,0,0,0,2.938.67c4.737.914,9.688,1.658,14.481,2.223,1.328.157,2.659.248,3.991.3a58.664,58.664,0,0,0,1.578-6.734A64.785,64.785,0,0,1,419.533,284.285Z" fill="#e05b41"/>
          <path id="Path_31" data-name="Path 31" d="M421.876,298.176c-2.34-.059-25.289-4.112-26.048-1.226-.636,2.451-2.541,8.265-3.176,9.8s-6.354,3.367-6.354,3.367a28.239,28.239,0,0,0-7.623.613c-14.536,3-28.284-19.028-41.929-9.185-2.545,1.839-8.578,1.227-11.118,2.144a5.389,5.389,0,0,1-.583.174,58.766,58.766,0,0,0,103.859-4.99A48.752,48.752,0,0,0,421.876,298.176Z" fill="#e05b41"/>
          <path id="Path_32" data-name="Path 32" d="M363.266,286.307c-3.354-.076-6.9-.968-10.22-.156-1.955.479-5.229,2.167-2.347,4.033,1.78,1.153,4.4.551,6.4.958a34.442,34.442,0,0,1,7.252,2.617c5.1,2.307,9.736,4.368,15.518,2.923,3.847-.962,7.347-1.733,9.853-5.1,1.39-1.873,1.975-4.97,3.994-6.319-2.744-1.59-6.24-.417-9.112.177C377.631,286.878,370.338,286.466,363.266,286.307Z" fill="#fbb040"/>
          <path id="Path_33" data-name="Path 33" d="M333.1,250.285c2.2-.111,4.644.126,6.741-.7,1.453-.569,4.027-2.729,1.6-4.015a9.424,9.424,0,0,0-3.006-.2c-4.649-.16-9.466-.128-14.128.043a58.163,58.163,0,0,0-3.215,6.756A62.58,62.58,0,0,1,333.1,250.285Z" fill="#f15a29"/>
          <path id="Path_34" data-name="Path 34" d="M320.227,271.24c4.128.918,4.447.307,9.847,1.837s13.66,1.53,14.93,1.836a26.559,26.559,0,0,0,4.766.307h30.494c1.269,0,9.53-.614,12.07-.919s8.895-.613,8.895-.613.635,0,7.306-.918,13.977-2.141,16.834-.612c1.586.849,5.614,1.228,9.051,1.552a59.22,59.22,0,0,0-.833-9.576L418.7,260.221l-14.929,1.224s-8.258,4.284-10.483,4.9-5.4.306-6.989.306-10.163-.612-10.163-.612a60.4,60.4,0,0,0-12.072-1.531c-5.717,0-18.743-.612-20.647,0s-6.353.613-7.307.613H317.555q-.428,2.83-.584,5.744A12.316,12.316,0,0,1,320.227,271.24Z" fill="#f15a29"/>
        </g>
        <path id="Path_35" data-name="Path 35" d="M357.6,256.586c0,1.459-3.306,2.64-7.385,2.64s-7.385-1.181-7.385-2.64,3.306-2.64,7.385-2.64S357.6,255.129,357.6,256.586Z" fill="#fbb040"/>
        <path id="Path_36" data-name="Path 36" d="M420.156,277.82c0,.929-2.107,1.683-4.706,1.683s-4.706-.754-4.706-1.683,2.108-1.681,4.706-1.681S420.156,276.892,420.156,277.82Z" fill="#fbb040"/>
        <path id="Path_37" data-name="Path 37" d="M336.135,281.493c0,.93-2.108,1.683-4.707,1.683s-4.706-.753-4.706-1.683,2.107-1.682,4.706-1.682S336.135,280.565,336.135,281.493Z" fill="#fbb040"/>
        <path id="Path_38" data-name="Path 38" d="M425.3,253.41c0,.8-1.82,1.452-4.064,1.452s-4.064-.649-4.064-1.452,1.819-1.453,4.064-1.453S425.3,252.607,425.3,253.41Z" fill="#fbb040"/>
        <path id="Path_39" data-name="Path 39" d="M389.335,303.3c0,.8-1.821,1.453-4.065,1.453s-4.063-.651-4.063-1.453,1.818-1.451,4.063-1.451S389.335,302.5,389.335,303.3Z" fill="#fbb040"/>
        <path id="Path_40" data-name="Path 40" d="M342.044,238.565c0,.8-1.821,1.453-4.064,1.453s-4.064-.651-4.064-1.453,1.818-1.453,4.064-1.453S342.044,237.762,342.044,238.565Z" fill="#fbb040"/>
      </g>
      <g id="Group_12" data-name="Group 12">
        <path id="Path_41" data-name="Path 41" d="M330.164,311.2a58.765,58.765,0,0,0,92.363-72.647C405.672,263.99,368.291,312.724,330.164,311.2Z" fill="#212a3c" opacity="0.2"/>
        <path id="Path_42" data-name="Path 42" d="M335.318,316.713a58.754,58.754,0,0,0,99.109-42.718c0-1.9-.1-3.77-.275-5.622C416.348,292.272,381.329,327.547,335.318,316.713Z" fill="#212a3c" opacity="0.2"/>
      </g>
      <path id="Path_43" data-name="Path 43" d="M396.655,229.567c8.363,13.775-.637,34.522-20.1,46.34s-42.025,10.235-50.387-3.538.637-34.519,20.1-46.339S388.292,215.8,396.655,229.567Z" opacity="0.3" fill="url(#linear-gradient)"/>
      <path id="Path_44" data-name="Path 44" d="M378.591,228.027c4.995,8.228-1.236,21.137-13.917,28.837s-27.01,7.273-32-.954,1.234-21.137,13.915-28.837S373.6,219.8,378.591,228.027Z" fill="#fff" opacity="0.3"/>
    </g>
    <path id="Path_45" data-name="Path 45" d="M473.025,270.7c-.747-7.419-15.207-12.333-37.261-14.014a82.667,82.667,0,0,1-.094,11.04c4.326,1.711,6.987,4,7.284,6.951,1.136,11.262-33.025,21.655-65.742,25.716s-68.107,2.3-69.239-8.961c-.266-2.636,1.422-5.223,4.554-7.7a32.351,32.351,0,0,1-1.408-11.147c-20,6.9-32.277,14.948-31.554,22.133,1.326,13.144,45.708,18.427,99.128,11.794S474.35,283.847,473.025,270.7Z" fill="#ffc585"/>
  </g>
</svg>
