<svg xmlns="http://www.w3.org/2000/svg" xmlns:xlink="http://www.w3.org/1999/xlink" width="64.5" height="64.5" viewBox="0 0 64.5 64.5">
  <defs>
    <linearGradient id="linear-gradient" x1="-3.872" y1="-1.811" x2="-3.542" y2="-1.097" gradientUnits="objectBoundingBox">
      <stop offset="0" stop-color="#fff"/>
      <stop offset="1" stop-color="#fff" stop-opacity="0"/>
    </linearGradient>
  </defs>
  <g id="Group_40" data-name="Group 40" transform="translate(-65.597 -356.902)">
    <g id="Group_38" data-name="Group 38">
      <g id="Group_37" data-name="Group 37">
        <circle id="Ellipse_18" data-name="Ellipse 18" cx="32.25" cy="32.25" r="32.25" transform="translate(65.597 356.902)" fill="#f15a29"/>
        <path id="Path_118" data-name="Path 118" d="M70.395,372.228c13.1-.17,32.831-1.4,49.634-6.473a32.287,32.287,0,0,1,7.912,11.8,196.463,196.463,0,0,1-62.07,7.447A32.032,32.032,0,0,1,70.395,372.228Z" fill="#f7941e"/>
        <path id="Path_119" data-name="Path 119" d="M65.608,389.605a32.492,32.492,0,0,0,.331,4.224,189.323,189.323,0,0,0,64.119-6.21,32.183,32.183,0,0,0-.825-5.867C107.581,389.1,77.071,389.676,65.608,389.605Z" fill="#ef4136"/>
        <g id="Group_36" data-name="Group 36">
          <path id="Path_120" data-name="Path 120" d="M126.8,403.353a32.03,32.03,0,0,0,3.132-10.939C106.2,398.4,80.78,398.891,67,398.6a32.178,32.178,0,0,0,6.513,11.692c-.216-.249-.438-.494-.647-.75A411.011,411.011,0,0,0,126.8,403.353Z" fill="#f7941e"/>
        </g>
      </g>
      <path id="Path_121" data-name="Path 121" d="M126.8,403.356l0,0a411.011,411.011,0,0,1-53.93,6.186c.209.256.431.5.647.75.262.3.527.6.8.891.238.254.478.505.724.753.331.331.672.652,1.018.969q.488.448.993.875c.354.3.712.6,1.079.879.254.2.513.39.773.579.386.282.78.552,1.178.816.211.139.416.286.629.42.578.363,1.171.7,1.772,1.031.24.13.485.254.728.378q.7.355,1.411.678c.213.1.423.2.638.288q.991.42,2.016.776c.2.069.4.13.605.195q.829.27,1.677.5c.211.056.421.114.633.166.735.179,1.478.337,2.232.465.131.023.264.036.394.057.656.1,1.318.184,1.985.247.214.021.428.039.643.056.793.058,1.592.1,2.4.1.707,0,1.407-.031,2.1-.076.168-.011.335-.022.5-.035.69-.056,1.374-.126,2.05-.224.038,0,.074-.012.112-.018.649-.1,1.289-.217,1.925-.351.153-.032.305-.064.457-.1.662-.151,1.318-.316,1.964-.506l.148-.046c.612-.184,1.215-.388,1.811-.607.126-.045.251-.09.376-.137.636-.243,1.264-.5,1.88-.781.043-.019.085-.041.129-.06q.883-.408,1.737-.867c.09-.048.18-.1.269-.145.607-.332,1.2-.68,1.785-1.05l.087-.057q.854-.546,1.669-1.144l.151-.109q.856-.635,1.668-1.319l.038-.035q.816-.693,1.583-1.438l.039-.036q.784-.764,1.516-1.579l0,0A32.386,32.386,0,0,0,126.8,403.356Z" fill="#ef4136"/>
      <path id="Path_122" data-name="Path 122" d="M108.344,364.629c.135.958-3.636,2.277-8.422,2.947s-8.774.439-8.908-.519,3.723-1.657,8.509-2.328S108.21,363.672,108.344,364.629Z" fill="#414042" opacity="0.3"/>
      <path id="Path_123" data-name="Path 123" d="M93.6,362.575c.088.625-2.372,1.486-5.5,1.923s-5.725.286-5.813-.339,2.43-1.08,5.552-1.518S93.51,361.951,93.6,362.575Z" fill="#414042" opacity="0.3"/>
      <path id="Path_124" data-name="Path 124" d="M87.932,380.572c.049.967-3.824,1.946-8.651,2.187s-8.779-.344-8.827-1.311,3.856-1.317,8.682-1.559S87.884,379.607,87.932,380.572Z" fill="#414042" opacity="0.3"/>
      <path id="Path_125" data-name="Path 125" d="M117.414,410.517c.162.954-3.57,2.377-8.337,3.179s-8.759.683-8.919-.271,3.676-1.758,8.441-2.562S117.254,409.564,117.414,410.517Z" fill="#414042" opacity="0.3"/>
      <path id="Path_126" data-name="Path 126" d="M104.106,374.138c.084.623-2.274,1.455-5.269,1.86s-5.49.229-5.574-.395,2.329-1.05,5.323-1.456S104.021,373.516,104.106,374.138Z" fill="#414042" opacity="0.3"/>
      <path id="Path_127" data-name="Path 127" d="M94.284,402.293c.071.625-2.3,1.408-5.305,1.752s-5.494.116-5.565-.509,2.35-1,5.352-1.346S94.212,401.669,94.284,402.293Z" fill="#414042" opacity="0.3"/>
      <path id="Path_128" data-name="Path 128" d="M123.644,374.386c.166.735-2.562,1.975-6.094,2.776s-6.53.849-6.695.112,2.669-1.5,6.2-2.3S123.478,373.653,123.644,374.386Z" fill="#414042" opacity="0.3"/>
      <path id="Path_129" data-name="Path 129" d="M119.6,387.609c.143.758-2.805,1.952-6.586,2.67s-6.963.688-7.107-.07,2.9-1.461,6.679-2.179S119.454,386.853,119.6,387.609Z" fill="#414042" opacity="0.3"/>
    </g>
    <g id="Group_39" data-name="Group 39">
      <path id="Path_130" data-name="Path 130" d="M123.791,370c-10.216,14.508-29.742,38.131-49.981,40.648A32.247,32.247,0,0,0,123.791,370Z" fill="#212a3c" opacity="0.2"/>
      <path id="Path_131" data-name="Path 131" d="M130.079,388.466c-10.41,12.765-28.269,28.9-50.941,26.947A32.242,32.242,0,0,0,130.1,389.152C130.1,388.922,130.084,388.7,130.079,388.466Z" fill="#212a3c" opacity="0.2"/>
    </g>
    <path id="Path_132" data-name="Path 132" d="M108.843,365.061c4.327,7.365-.6,18.291-11.01,24.406s-22.351,5.1-26.677-2.261.6-18.291,11.009-24.406S104.516,357.7,108.843,365.061Z" opacity="0.3" fill="url(#linear-gradient)"/>
    <path id="Path_133" data-name="Path 133" d="M99.281,364.106c2.584,4.4-.818,11.194-7.6,15.177s-14.369,3.648-16.953-.751.815-11.192,7.6-15.177S96.7,359.708,99.281,364.106Z" fill="#fff" opacity="0.3"/>
  </g>
</svg>
